<svg xmlns="http://www.w3.org/2000/svg"
     width="6.38in" height="6.38in"
     viewBox="0 0 1914 1914">
  <path id="splotani_logo"
        fill="white" stroke="white" stroke-width="10"
        d="M 916.00,1.14
           C 916.00,1.14 946.00,1.14 946.00,1.14
             946.00,1.14 990.00,1.14 990.00,1.14
             990.00,1.14 1012.00,2.00 1012.00,2.00
             1012.00,2.00 1022.00,2.91 1022.00,2.91
             1022.00,2.91 1057.00,5.83 1057.00,5.83
             1102.56,10.39 1147.57,18.52 1192.00,29.63
             1364.77,72.82 1524.88,166.32 1647.96,295.00
             1751.69,403.45 1829.59,536.25 1872.72,680.00
             1888.32,732.01 1899.71,785.07 1906.15,839.00
             1906.15,839.00 1911.09,892.00 1911.09,892.00
             1911.09,892.00 1912.00,902.00 1912.00,902.00
             1912.00,902.00 1913.00,924.00 1913.00,924.00
             1913.00,924.00 1913.00,990.00 1913.00,990.00
             1913.00,990.00 1912.00,1007.00 1912.00,1007.00
             1912.00,1007.00 1908.17,1057.00 1908.17,1057.00
             1902.11,1117.63 1889.85,1177.65 1872.28,1236.00
             1783.90,1529.47 1554.72,1764.31 1265.00,1863.00
             1203.58,1883.92 1139.42,1898.45 1075.00,1906.15
             1075.00,1906.15 1022.00,1911.09 1022.00,1911.09
             1022.00,1911.09 1011.00,1912.00 1011.00,1912.00
             1011.00,1912.00 990.00,1913.00 990.00,1913.00
             990.00,1913.00 923.00,1913.00 923.00,1913.00
             923.00,1913.00 902.00,1912.00 902.00,1912.00
             902.00,1912.00 892.00,1911.09 892.00,1911.09
             892.00,1911.09 832.00,1905.28 832.00,1905.28
             766.69,1896.76 702.08,1881.78 640.00,1859.69
             510.28,1813.53 394.66,1743.29 295.00,1647.96
             184.61,1542.38 100.24,1409.54 51.00,1265.00
             -26.61,1037.14 -14.22,778.91 86.31,560.00
             197.68,317.45 404.99,130.49 659.00,47.67
             713.12,30.03 770.55,16.71 827.00,9.28
             827.00,9.28 885.00,3.09 885.00,3.09
             885.00,3.09 902.00,2.00 902.00,2.00
             907.42,1.94 910.46,2.21 916.00,1.14 Z
           M 945.00,23.19
           C 936.75,24.47 928.32,23.99 920.00,24.00
             920.00,24.00 902.00,25.00 902.00,25.00
             902.00,25.00 890.00,25.91 890.00,25.91
             890.00,25.91 861.00,28.17 861.00,28.17
             799.88,34.28 739.79,47.01 681.00,64.72
             435.03,138.81 223.40,322.98 113.78,555.00
             72.26,642.88 44.41,735.60 31.72,832.00
             31.72,832.00 25.91,890.00 25.91,890.00
             25.91,890.00 25.00,900.00 25.00,900.00
             25.00,900.00 24.00,920.00 24.00,920.00
             24.00,920.00 24.00,935.00 24.00,935.00
             24.00,935.00 23.04,947.00 23.04,947.00
             23.04,947.00 23.04,962.00 23.04,962.00
             23.04,962.00 24.00,979.00 24.00,979.00
             24.00,979.00 24.00,996.00 24.00,996.00
             24.00,996.00 25.00,1014.00 25.00,1014.00
             25.00,1014.00 25.91,1024.00 25.91,1024.00
             25.91,1024.00 28.84,1058.00 28.84,1058.00
             32.17,1089.20 36.84,1120.33 43.58,1151.00
             70.87,1275.28 117.64,1386.42 190.72,1491.00
             244.83,1568.43 309.49,1636.52 384.00,1694.58
             460.07,1753.85 545.48,1800.94 636.00,1834.05
             699.35,1857.22 765.12,1873.48 832.00,1882.28
             832.00,1882.28 890.00,1888.09 890.00,1888.09
             890.00,1888.09 900.00,1889.00 900.00,1889.00
             900.00,1889.00 917.00,1890.00 917.00,1890.00
             917.00,1890.00 935.00,1890.00 935.00,1890.00
             935.00,1890.00 952.00,1890.96 952.00,1890.96
             952.00,1890.96 967.00,1890.96 967.00,1890.96
             967.00,1890.96 978.00,1890.00 978.00,1890.00
             978.00,1890.00 995.00,1890.00 995.00,1890.00
             995.00,1890.00 1014.00,1889.00 1014.00,1889.00
             1014.00,1889.00 1024.00,1888.09 1024.00,1888.09
             1024.00,1888.09 1082.00,1882.28 1082.00,1882.28
             1139.83,1874.67 1197.71,1861.65 1253.00,1843.00
             1386.80,1797.85 1505.99,1724.53 1608.00,1626.96
             1608.00,1626.96 1635.04,1599.00 1635.04,1599.00
             1741.63,1487.56 1818.62,1348.72 1858.85,1200.00
             1871.42,1153.52 1880.05,1105.85 1885.16,1058.00
             1885.16,1058.00 1888.09,1024.00 1888.09,1024.00
             1888.09,1024.00 1889.00,1014.00 1889.00,1014.00
             1889.00,1014.00 1890.00,995.00 1890.00,995.00
             1890.00,995.00 1890.00,977.00 1890.00,977.00
             1890.00,977.00 1890.96,967.00 1890.96,967.00
             1890.96,967.00 1890.96,952.00 1890.96,952.00
             1890.96,952.00 1890.00,935.00 1890.00,935.00
             1890.00,935.00 1890.00,918.00 1890.00,918.00
             1890.00,918.00 1889.00,900.00 1889.00,900.00
             1889.00,900.00 1888.09,890.00 1888.09,890.00
             1888.09,890.00 1882.28,832.00 1882.28,832.00
             1875.10,777.48 1863.09,724.38 1846.34,672.00
             1802.22,533.94 1727.07,410.66 1626.96,306.00
             1626.96,306.00 1599.00,278.96 1599.00,278.96
             1494.81,179.30 1366.06,104.70 1228.00,63.28
             1180.16,48.93 1131.53,38.24 1082.00,31.72
             1059.76,28.79 1031.15,25.26 1009.00,25.00
             1009.00,25.00 994.00,24.00 994.00,24.00
             994.00,24.00 979.00,24.00 979.00,24.00
             979.00,24.00 967.00,23.19 967.00,23.19
             967.00,23.19 945.00,23.19 945.00,23.19 Z
           M 604.00,464.21
           C 604.00,464.21 632.00,464.21 632.00,464.21
             657.50,464.00 695.98,466.13 717.00,481.76
             724.99,487.70 730.74,495.07 732.54,505.00
             735.67,522.36 723.28,541.12 705.00,541.90
             701.07,542.06 694.62,540.19 695.74,535.00
             696.72,530.47 702.84,528.79 704.53,520.00
             708.20,500.91 687.70,487.24 672.00,482.43
             659.10,478.49 648.32,477.54 635.00,476.96
             635.00,476.96 624.00,476.00 624.00,476.00
             624.00,476.00 609.00,476.91 609.00,476.91
             609.00,476.91 568.00,481.59 568.00,481.59
             503.38,492.43 426.43,521.70 401.06,588.00
             393.26,608.40 390.75,628.29 391.00,650.00
             391.40,684.15 408.68,726.67 418.42,760.00
             422.37,773.51 427.83,794.09 428.00,808.00
             428.00,808.00 428.00,820.00 428.00,820.00
             427.95,850.78 409.31,880.24 387.00,900.05
             347.23,935.36 283.77,953.39 232.00,961.42
             218.06,963.59 192.60,966.94 179.00,967.00
             179.00,967.00 152.00,968.00 152.00,968.00
             152.00,968.00 137.00,967.00 137.00,967.00
             122.23,966.98 97.28,963.46 84.00,957.22
             71.97,951.56 62.41,943.39 63.04,929.00
             63.81,911.34 88.89,897.98 104.00,893.75
             108.07,892.60 112.77,891.80 117.00,892.04
             120.30,892.23 124.78,893.52 123.34,897.91
             122.17,901.52 116.26,903.08 113.00,904.12
             105.03,906.65 86.47,913.59 87.33,924.00
             87.75,929.10 96.08,936.30 100.00,939.32
             113.74,949.91 137.85,954.80 155.00,955.00
             176.63,955.25 198.55,953.08 220.00,950.28
             267.06,944.14 319.19,932.15 357.00,902.00
             378.77,884.64 399.43,857.51 402.07,829.00
             402.37,825.85 403.04,823.20 402.82,820.00
             400.50,787.35 390.52,763.54 381.02,733.00
             376.11,717.18 371.61,697.37 368.92,681.00
             368.92,681.00 366.00,655.00 366.00,655.00
             365.77,634.61 366.45,622.83 372.29,603.00
             394.74,526.78 476.91,487.53 549.00,472.21
             549.00,472.21 586.00,466.16 586.00,466.16
             586.00,466.16 604.00,464.21 604.00,464.21 Z
           M 727.00,838.00
           C 727.00,838.00 706.00,855.20 706.00,855.20
             706.00,855.20 662.00,889.37 662.00,889.37
             662.00,889.37 623.00,917.02 623.00,917.02
             612.14,924.54 602.85,932.11 589.00,932.91
             572.47,933.86 570.60,920.81 573.42,908.00
             578.10,886.77 591.50,862.83 602.42,844.00
             625.97,803.43 662.87,750.67 692.20,714.00
             707.67,694.66 735.96,661.23 754.00,645.58
             773.62,628.54 793.62,610.15 818.00,600.01
             824.94,597.12 839.09,591.71 845.58,597.65
             853.21,604.62 844.89,616.65 840.67,623.00
             826.93,643.64 811.53,662.90 795.75,682.00
             795.75,682.00 745.91,740.00 745.91,740.00
             713.79,774.48 673.22,810.53 636.00,839.58
             631.25,843.28 616.49,854.38 613.33,858.04
             607.27,865.05 599.40,883.86 596.05,893.00
             594.32,897.74 589.38,911.45 590.35,915.98
             591.72,922.33 597.78,920.69 602.00,918.63
             608.92,915.26 622.22,905.96 629.00,901.34
             660.88,879.64 690.77,855.26 720.00,830.13
             726.91,824.19 734.20,817.63 743.00,814.87
             746.47,813.61 750.30,812.04 753.00,814.87
             766.18,806.18 777.44,794.97 793.00,790.03
             796.06,789.06 810.09,785.55 808.26,793.01
             807.31,796.85 801.25,799.00 798.00,800.42
             789.53,804.12 781.51,809.06 774.00,814.43
             760.56,824.03 748.65,835.35 737.00,847.00
             726.47,857.53 715.99,868.55 709.27,882.00
             709.27,882.00 703.86,895.00 703.86,895.00
             702.60,898.57 700.75,904.26 701.15,908.00
             702.41,920.06 716.97,917.52 725.00,914.97
             737.17,911.10 754.73,901.01 765.00,893.37
             770.34,889.39 775.98,885.36 780.00,880.24
             777.38,880.32 775.69,880.67 773.00,880.24
             769.55,880.25 765.09,879.59 762.02,878.00
             748.09,870.83 754.61,850.11 761.09,840.00
             772.27,822.56 802.02,800.13 822.00,793.75
             825.01,792.78 830.88,791.48 834.00,791.23
             836.48,790.92 840.55,790.93 843.00,791.23
             863.53,794.37 850.68,820.52 844.58,831.00
             844.58,831.00 825.00,858.00 825.00,858.00
             848.61,853.24 863.28,839.53 883.00,828.01
             886.70,825.85 889.87,824.26 894.00,823.04
             897.39,822.04 900.79,822.26 903.48,819.69
             903.48,819.69 916.37,801.00 916.37,801.00
             916.37,801.00 951.42,754.00 951.42,754.00
             951.42,754.00 983.65,712.00 983.65,712.00
             983.65,712.00 1003.00,686.00 1003.00,686.00
             1003.00,686.00 988.00,687.00 988.00,687.00
             988.00,687.00 966.00,687.00 966.00,687.00
             966.00,687.00 949.00,688.00 949.00,688.00
             949.00,688.00 854.00,690.00 854.00,690.00
             854.00,690.00 837.00,691.00 837.00,691.00
             837.00,691.00 817.00,691.00 817.00,691.00
             817.00,691.00 795.00,691.00 795.00,691.00
             796.84,688.49 798.15,686.68 801.00,685.16
             807.24,681.84 828.00,683.09 836.00,683.00
             836.00,683.00 851.00,682.00 851.00,682.00
             851.00,682.00 945.00,680.00 945.00,680.00
             945.00,680.00 961.00,679.00 961.00,679.00
             961.00,679.00 982.00,679.00 982.00,679.00
             982.00,679.00 1002.00,678.00 1002.00,678.00
             1003.93,678.00 1007.08,678.12 1008.83,677.40
             1012.39,675.93 1021.30,662.76 1024.13,659.00
             1024.13,659.00 1042.35,635.00 1042.35,635.00
             1052.03,622.49 1057.40,613.40 1075.00,613.00
             1073.41,620.80 1066.14,628.65 1061.37,635.00
             1061.37,635.00 1029.00,678.00 1029.00,678.00
             1029.00,678.00 1142.00,678.00 1142.00,678.00
             1142.00,678.00 1157.00,679.00 1157.00,679.00
             1157.00,679.00 1180.00,679.00 1180.00,679.00
             1180.00,679.00 1195.00,680.00 1195.00,680.00
             1195.00,680.00 1207.00,681.00 1207.00,681.00
             1201.50,691.98 1187.79,687.12 1178.00,687.00
             1178.00,687.00 1138.00,687.00 1138.00,687.00
             1138.00,687.00 1123.00,686.00 1123.00,686.00
             1123.00,686.00 1036.00,686.00 1036.00,686.00
             1032.02,686.01 1026.56,686.01 1023.01,687.98
             1019.07,690.18 1013.81,698.14 1010.79,702.00
             1010.79,702.00 986.00,734.00 986.00,734.00
             986.00,734.00 935.42,801.00 935.42,801.00
             935.42,801.00 913.98,833.00 913.98,833.00
             913.98,833.00 873.00,894.00 873.00,894.00
             877.51,891.25 881.49,888.33 887.00,888.11
             889.13,888.03 892.34,888.25 892.26,891.15
             892.17,894.46 886.31,899.71 884.00,902.00
             877.32,908.61 864.18,919.88 856.00,924.22
             852.53,926.06 842.37,930.97 839.74,925.71
             836.11,918.45 847.46,904.74 851.33,899.00
             851.33,899.00 898.00,828.00 898.00,828.00
             873.90,847.71 863.41,855.81 835.00,869.22
             829.06,872.02 823.37,874.04 817.00,875.63
             813.69,876.45 808.66,876.92 806.00,878.60
             806.00,878.60 778.00,901.58 778.00,901.58
             761.54,914.40 736.50,929.90 715.00,930.00
             715.00,930.00 707.00,930.00 707.00,930.00
             688.82,929.78 680.91,915.65 684.90,899.00
             690.05,877.49 711.67,853.37 727.00,838.00 Z
           M 824.00,611.00
           C 812.83,611.10 807.44,616.02 799.00,622.80
             786.19,633.10 774.60,644.40 763.00,656.00
             763.00,656.00 742.17,677.00 742.17,677.00
             742.17,677.00 692.20,737.00 692.20,737.00
             671.45,762.93 645.43,797.83 630.00,827.00
             636.81,824.09 643.34,817.57 649.00,812.73
             649.00,812.73 682.00,783.04 682.00,783.04
             682.00,783.04 721.96,744.00 721.96,744.00
             744.22,720.73 765.66,696.14 785.80,671.00
             785.80,671.00 814.33,634.00 814.33,634.00
             819.84,625.86 823.90,621.14 824.00,611.00 Z
           M 278.00,1098.00
           C 280.53,1089.98 295.73,1068.81 301.29,1061.00
             301.29,1061.00 350.12,994.00 350.12,994.00
             350.12,994.00 410.42,910.00 410.42,910.00
             410.42,910.00 501.00,784.00 501.00,784.00
             501.00,784.00 550.58,715.00 550.58,715.00
             556.90,706.16 558.69,701.64 570.00,699.75
             575.52,698.83 576.82,698.60 582.00,701.00
             582.00,701.00 555.71,738.00 555.71,738.00
             555.71,738.00 495.29,822.00 495.29,822.00
             495.29,822.00 474.00,852.00 474.00,852.00
             489.83,839.02 504.63,825.08 522.00,814.05
             530.46,808.68 543.69,801.09 553.00,797.69
             562.13,794.37 576.31,790.54 586.00,791.09
             600.62,791.92 611.62,796.18 610.96,813.00
             610.31,829.69 597.26,845.73 586.00,857.00
             559.23,883.81 528.72,903.24 494.00,918.00
             482.02,923.09 471.95,926.94 459.00,929.08
             454.05,929.90 446.64,930.63 442.15,927.84
             434.81,923.29 442.24,914.88 446.01,911.00
             455.91,900.84 461.96,895.34 477.00,899.00
             477.00,899.00 464.00,916.00 464.00,916.00
             473.24,917.79 487.69,909.40 496.00,905.25
             525.44,890.53 552.70,870.29 572.76,844.00
             577.68,837.56 586.46,823.67 588.55,816.00
             590.66,808.21 585.90,802.77 578.00,802.73
             571.71,802.69 561.97,805.87 556.00,808.05
             533.26,816.39 518.78,829.05 501.00,844.72
             486.30,857.67 464.50,882.70 450.84,898.00
             427.98,923.59 405.60,949.81 384.65,977.00
             384.65,977.00 356.42,1016.00 356.42,1016.00
             356.42,1016.00 314.00,1074.00 314.00,1074.00
             308.75,1080.56 299.63,1094.06 292.00,1096.87
             287.89,1098.38 282.40,1098.00 278.00,1098.00 Z
           M 991.00,905.00
           C 996.41,909.06 1016.45,932.38 1022.28,939.00
             1022.28,939.00 1069.84,992.00 1069.84,992.00
             1069.84,992.00 1088.58,1013.00 1088.58,1013.00
             1090.40,1015.11 1097.16,1023.08 1099.17,1024.01
             1102.42,1025.52 1113.32,1020.04 1117.00,1018.68
             1117.00,1018.68 1166.00,1002.42 1166.00,1002.42
             1191.99,995.01 1218.24,989.59 1245.00,985.87
             1245.00,985.87 1282.00,982.00 1282.00,982.00
             1282.00,982.00 1301.00,981.00 1301.00,981.00
             1301.00,981.00 1333.00,981.00 1333.00,981.00
             1333.00,981.00 1374.00,984.75 1374.00,984.75
             1377.74,985.36 1389.94,988.10 1392.83,986.81
             1395.18,985.76 1402.38,977.36 1404.42,975.00
             1404.42,975.00 1425.07,952.00 1425.07,952.00
             1425.07,952.00 1476.17,895.00 1476.17,895.00
             1476.17,895.00 1505.82,862.00 1505.82,862.00
             1509.96,856.67 1506.14,853.42 1503.88,848.00
             1502.24,844.09 1501.22,839.23 1501.04,835.00
             1500.10,813.66 1513.37,794.37 1535.00,790.23
             1538.32,789.86 1542.58,789.96 1546.00,790.23
             1570.38,790.29 1586.26,810.63 1586.00,834.00
             1585.73,857.43 1565.21,875.87 1542.00,874.96
             1538.33,874.82 1532.47,873.65 1529.00,872.45
             1526.35,871.54 1523.84,869.80 1521.00,870.99
             1517.79,872.32 1512.50,879.19 1509.92,882.00
             1509.92,882.00 1486.58,908.00 1486.58,908.00
             1486.58,908.00 1439.92,960.00 1439.92,960.00
             1439.92,960.00 1411.00,993.00 1411.00,993.00
             1418.75,993.65 1427.54,997.16 1435.00,999.67
             1457.10,1007.11 1482.82,1020.13 1497.10,1039.00
             1509.50,1055.38 1513.63,1077.21 1501.64,1095.00
             1492.01,1109.29 1476.07,1117.45 1461.00,1124.74
             1457.31,1126.53 1441.22,1133.68 1443.71,1123.00
             1445.34,1115.95 1458.00,1110.60 1464.00,1107.00
             1423.73,1093.82 1385.19,1093.03 1344.00,1102.35
             1344.00,1102.35 1317.00,1109.67 1317.00,1109.67
             1314.58,1110.46 1309.36,1111.72 1308.40,1114.27
             1307.70,1116.13 1309.04,1119.19 1309.66,1121.00
             1309.66,1121.00 1314.63,1137.00 1314.63,1137.00
             1319.05,1154.46 1322.97,1173.96 1323.00,1192.00
             1323.05,1223.08 1320.07,1249.64 1308.94,1279.00
             1308.94,1279.00 1295.00,1308.00 1295.00,1308.00
             1295.00,1308.00 1328.00,1290.69 1328.00,1290.69
             1328.00,1290.69 1372.00,1265.40 1372.00,1265.40
             1372.00,1265.40 1395.00,1251.22 1395.00,1251.22
             1401.87,1246.32 1412.55,1236.06 1419.00,1229.97
             1423.70,1225.53 1436.81,1212.61 1442.00,1210.85
             1445.14,1209.79 1451.71,1209.17 1453.02,1213.23
             1454.13,1216.62 1451.06,1219.76 1448.96,1222.00
             1443.30,1228.04 1437.26,1234.02 1431.00,1239.42
             1431.00,1239.42 1417.00,1252.00 1417.00,1252.00
             1398.29,1270.58 1376.71,1301.59 1396.53,1327.00
             1399.37,1330.64 1402.87,1333.54 1407.00,1335.62
             1435.02,1349.77 1473.43,1331.38 1497.00,1315.67
             1503.13,1311.58 1521.15,1297.11 1526.00,1295.82
             1529.88,1294.48 1534.18,1294.92 1538.00,1295.82
             1538.00,1295.82 1562.60,1255.00 1562.60,1255.00
             1567.31,1247.14 1572.57,1238.15 1574.00,1229.00
             1574.00,1229.00 1551.00,1243.67 1551.00,1243.67
             1540.15,1250.99 1533.09,1259.86 1519.00,1254.00
             1522.52,1247.76 1529.21,1244.01 1535.00,1240.02
             1547.51,1231.41 1566.53,1218.99 1582.00,1218.21
             1583.59,1218.00 1585.43,1218.05 1587.00,1218.21
             1600.16,1220.69 1593.78,1234.93 1590.55,1243.00
             1581.03,1266.80 1562.47,1286.80 1550.00,1309.00
             1550.00,1309.00 1565.00,1296.27 1565.00,1296.27
             1565.00,1296.27 1587.00,1278.42 1587.00,1278.42
             1587.00,1278.42 1631.00,1247.14 1631.00,1247.14
             1638.17,1242.03 1643.97,1238.47 1653.00,1237.68
             1655.69,1237.44 1661.08,1237.54 1662.41,1240.43
             1664.82,1245.67 1654.47,1258.86 1651.37,1263.00
             1651.37,1263.00 1608.72,1324.00 1608.72,1324.00
             1605.91,1328.03 1598.24,1338.88 1596.99,1343.00
             1595.84,1346.83 1596.45,1350.61 1601.02,1351.40
             1603.55,1351.84 1608.53,1350.18 1611.00,1349.30
             1617.79,1346.89 1626.81,1341.98 1633.00,1338.19
             1648.20,1328.88 1684.84,1301.88 1696.83,1289.83
             1696.83,1289.83 1709.20,1275.00 1709.20,1275.00
             1709.20,1275.00 1722.73,1259.00 1722.73,1259.00
             1732.61,1247.48 1738.11,1238.89 1755.00,1243.00
             1753.26,1248.93 1746.32,1255.32 1742.07,1260.00
             1742.07,1260.00 1717.08,1289.00 1717.08,1289.00
             1717.08,1289.00 1697.34,1314.00 1697.34,1314.00
             1697.34,1314.00 1682.44,1338.00 1682.44,1338.00
             1680.65,1341.22 1678.25,1346.23 1679.61,1349.96
             1681.45,1354.99 1685.73,1354.76 1690.00,1353.73
             1697.74,1351.85 1705.01,1348.47 1712.00,1344.69
             1738.64,1330.28 1762.10,1311.04 1785.00,1291.42
             1795.88,1282.10 1798.88,1275.14 1814.00,1275.00
             1813.55,1277.11 1813.46,1278.07 1812.26,1280.00
             1809.55,1284.37 1793.73,1298.13 1789.00,1302.08
             1789.00,1302.08 1747.00,1333.02 1747.00,1333.02
             1732.90,1342.74 1718.83,1352.81 1703.00,1359.57
             1698.69,1361.41 1692.51,1363.66 1688.00,1364.84
             1683.86,1365.93 1681.25,1366.09 1677.00,1365.99
             1663.67,1365.66 1660.91,1354.11 1663.76,1343.00
             1664.94,1338.41 1668.01,1332.20 1670.31,1328.00
             1670.31,1328.00 1675.00,1320.00 1675.00,1320.00
             1658.68,1333.04 1640.70,1344.92 1622.00,1354.25
             1611.69,1359.39 1599.67,1364.86 1588.00,1364.78
             1585.91,1365.02 1581.90,1365.10 1580.00,1364.78
             1566.32,1360.78 1577.04,1343.32 1580.76,1336.00
             1586.35,1325.00 1593.97,1315.12 1600.98,1305.00
             1600.98,1305.00 1631.00,1263.00 1631.00,1263.00
             1622.18,1267.96 1605.49,1280.96 1597.00,1287.58
             1573.80,1305.66 1551.79,1325.21 1531.00,1346.00
             1521.90,1355.10 1503.33,1375.51 1489.00,1369.00
             1491.68,1359.64 1500.14,1349.60 1506.20,1342.00
             1512.91,1333.58 1523.81,1318.25 1529.00,1309.00
             1502.10,1329.82 1459.13,1357.95 1424.00,1358.00
             1424.00,1358.00 1415.00,1358.00 1415.00,1358.00
             1390.39,1357.71 1366.34,1337.51 1366.34,1312.00
             1366.33,1298.54 1371.93,1289.77 1377.00,1278.00
             1377.00,1278.00 1306.00,1317.00 1306.00,1317.00
             1306.00,1317.00 1333.17,1347.00 1333.17,1347.00
             1333.17,1347.00 1362.28,1379.00 1362.28,1379.00
             1362.28,1379.00 1388.03,1408.00 1388.03,1408.00
             1388.03,1408.00 1396.00,1427.00 1396.00,1427.00
             1391.36,1425.00 1379.64,1419.47 1376.00,1416.61
             1370.90,1412.61 1358.87,1398.58 1353.83,1393.00
             1353.83,1393.00 1319.09,1355.00 1319.09,1355.00
             1319.09,1355.00 1299.09,1333.00 1299.09,1333.00
             1297.43,1331.21 1293.70,1326.18 1291.56,1325.63
             1289.68,1325.15 1286.71,1326.91 1285.00,1327.69
             1285.00,1327.69 1270.00,1334.58 1270.00,1334.58
             1252.50,1342.19 1232.28,1350.23 1214.00,1355.58
             1166.03,1369.62 1129.96,1375.08 1080.00,1375.00
             1080.00,1375.00 1064.00,1374.22 1064.00,1374.22
             1062.18,1373.97 1059.70,1373.82 1058.00,1374.22
             1054.07,1375.89 1042.92,1389.14 1039.58,1393.00
             1039.58,1393.00 1017.00,1417.61 1017.00,1417.61
             1013.50,1420.38 1002.39,1426.11 998.00,1428.00
             998.00,1428.00 1003.84,1410.00 1003.84,1410.00
             1003.84,1410.00 1038.00,1370.00 1038.00,1370.00
             1028.01,1369.16 1010.38,1363.30 1001.00,1359.28
             955.49,1339.79 916.08,1295.66 916.00,1244.00
             916.00,1244.00 916.00,1234.00 916.00,1234.00
             916.03,1214.89 922.65,1192.48 930.15,1175.00
             949.97,1128.86 986.69,1091.92 1028.00,1064.33
             1040.96,1055.68 1054.05,1047.73 1068.00,1040.75
             1073.36,1038.07 1079.30,1034.62 1085.00,1033.00
             1085.00,1033.00 1012.83,952.00 1012.83,952.00
             1012.83,952.00 993.98,931.00 993.98,931.00
             993.98,931.00 981.00,915.00 981.00,915.00
             966.23,921.26 951.99,924.31 937.00,916.10
             910.73,901.70 906.74,862.89 931.00,844.76
             960.51,822.71 1000.42,842.96 1000.00,880.00
             999.89,889.54 996.75,897.48 991.00,905.00 Z
           M 820.00,806.39
           C 806.22,810.52 786.27,833.09 780.51,846.00
             777.39,853.00 776.49,862.44 785.02,865.99
             787.18,866.90 790.72,867.25 793.00,866.69
             797.76,865.52 801.64,859.70 804.60,856.00
             810.64,848.45 823.51,831.42 827.12,823.00
             830.76,814.53 832.83,804.71 820.00,806.39 Z
           M 753.00,815.00
           C 753.00,815.00 752.00,815.00 752.00,815.00
             752.00,815.00 753.00,816.00 753.00,816.00
             753.00,816.00 753.00,815.00 753.00,815.00 Z
           M 752.00,816.00
           C 752.00,816.00 751.00,816.00 751.00,816.00
             751.00,816.00 752.00,817.00 752.00,817.00
             752.00,817.00 752.00,816.00 752.00,816.00 Z
           M 751.00,817.00
           C 751.00,817.00 750.00,817.00 750.00,817.00
             750.00,817.00 751.00,818.00 751.00,818.00
             751.00,818.00 751.00,817.00 751.00,817.00 Z
           M 750.00,818.00
           C 750.00,818.00 749.00,818.00 749.00,818.00
             749.00,818.00 750.00,819.00 750.00,819.00
             750.00,819.00 750.00,818.00 750.00,818.00 Z
           M 747.00,820.00
           C 747.00,820.00 746.00,820.00 746.00,820.00
             746.00,820.00 747.00,821.00 747.00,821.00
             747.00,821.00 747.00,820.00 747.00,820.00 Z
           M 746.00,821.00
           C 746.00,821.00 745.00,821.00 745.00,821.00
             745.00,821.00 746.00,822.00 746.00,822.00
             746.00,822.00 746.00,821.00 746.00,821.00 Z
           M 745.00,822.00
           C 745.00,822.00 744.00,822.00 744.00,822.00
             744.00,822.00 745.00,823.00 745.00,823.00
             745.00,823.00 745.00,822.00 745.00,822.00 Z
           M 744.00,823.00
           C 744.00,823.00 743.00,823.00 743.00,823.00
             743.00,823.00 744.00,824.00 744.00,824.00
             744.00,824.00 744.00,823.00 744.00,823.00 Z
           M 743.00,824.00
           C 743.00,824.00 742.00,824.00 742.00,824.00
             742.00,824.00 743.00,825.00 743.00,825.00
             743.00,825.00 743.00,824.00 743.00,824.00 Z
           M 742.00,825.00
           C 742.00,825.00 741.00,825.00 741.00,825.00
             741.00,825.00 742.00,826.00 742.00,826.00
             742.00,826.00 742.00,825.00 742.00,825.00 Z
           M 740.00,826.00
           C 740.00,826.00 739.00,826.00 739.00,826.00
             739.00,826.00 740.00,827.00 740.00,827.00
             740.00,827.00 740.00,826.00 740.00,826.00 Z
           M 900.00,826.00
           C 900.00,826.00 899.00,826.00 899.00,826.00
             899.00,826.00 900.00,827.00 900.00,827.00
             900.00,827.00 900.00,826.00 900.00,826.00 Z
           M 739.00,827.00
           C 739.00,827.00 738.00,827.00 738.00,827.00
             738.00,827.00 739.00,828.00 739.00,828.00
             739.00,828.00 739.00,827.00 739.00,827.00 Z
           M 899.00,827.00
           C 899.00,827.00 898.00,827.00 898.00,827.00
             898.00,827.00 899.00,828.00 899.00,828.00
             899.00,828.00 899.00,827.00 899.00,827.00 Z
           M 738.00,828.00
           C 738.00,828.00 737.00,828.00 737.00,828.00
             737.00,828.00 738.00,829.00 738.00,829.00
             738.00,829.00 738.00,828.00 738.00,828.00 Z
           M 737.00,829.00
           C 737.00,829.00 736.00,829.00 736.00,829.00
             736.00,829.00 737.00,830.00 737.00,830.00
             737.00,830.00 737.00,829.00 737.00,829.00 Z
           M 736.00,830.00
           C 736.00,830.00 735.00,830.00 735.00,830.00
             735.00,830.00 736.00,831.00 736.00,831.00
             736.00,831.00 736.00,830.00 736.00,830.00 Z
           M 735.00,831.00
           C 735.00,831.00 734.00,831.00 734.00,831.00
             734.00,831.00 735.00,832.00 735.00,832.00
             735.00,832.00 735.00,831.00 735.00,831.00 Z
           M 734.00,832.00
           C 734.00,832.00 733.00,832.00 733.00,832.00
             733.00,832.00 734.00,833.00 734.00,833.00
             734.00,833.00 734.00,832.00 734.00,832.00 Z
           M 733.00,833.00
           C 733.00,833.00 727.00,838.00 727.00,838.00
             727.00,838.00 733.00,833.00 733.00,833.00 Z
           M 1449.00,1029.00
           C 1413.54,1012.03 1387.19,1004.03 1348.00,999.84
             1348.00,999.84 1326.00,998.00 1326.00,998.00
             1326.00,998.00 1284.00,998.00 1284.00,998.00
             1284.00,998.00 1236.00,1002.59 1236.00,1002.59
             1230.65,1003.43 1221.33,1004.18 1217.00,1007.00
             1217.00,1007.00 1236.00,1019.15 1236.00,1019.15
             1236.00,1019.15 1247.00,1026.45 1247.00,1026.45
             1247.00,1026.45 1260.00,1025.08 1260.00,1025.08
             1260.00,1025.08 1287.00,1021.28 1287.00,1021.28
             1287.00,1021.28 1330.00,1018.00 1330.00,1018.00
             1330.00,1018.00 1363.00,1018.00 1363.00,1018.00
             1363.00,1018.00 1375.00,1018.91 1375.00,1018.91
             1375.00,1018.91 1421.00,1024.20 1421.00,1024.20
             1421.00,1024.20 1438.00,1027.87 1438.00,1027.87
             1438.00,1027.87 1449.00,1029.00 1449.00,1029.00 Z
           M 1245.00,1329.00
           C 1251.18,1328.03 1260.02,1323.86 1266.00,1321.28
             1269.43,1319.80 1274.79,1317.81 1277.48,1315.37
             1280.56,1312.56 1286.17,1302.09 1288.24,1298.00
             1295.14,1284.44 1299.23,1274.67 1303.42,1260.00
             1322.90,1191.74 1308.37,1116.65 1264.00,1061.00
             1251.16,1044.90 1238.14,1033.04 1221.00,1021.67
             1216.58,1018.73 1203.85,1011.33 1199.00,1010.40
             1195.44,1009.72 1191.46,1011.01 1188.00,1011.87
             1182.45,1013.26 1171.50,1015.33 1167.00,1018.00
             1222.06,1047.12 1260.02,1108.73 1271.39,1169.00
             1275.48,1190.69 1275.03,1201.50 1275.00,1223.00
             1274.97,1242.48 1268.23,1272.77 1261.19,1291.00
             1261.19,1291.00 1245.00,1329.00 1245.00,1329.00 Z
           M 1194.00,1346.00
           C 1201.24,1345.35 1208.07,1342.46 1215.00,1340.42
             1218.50,1339.40 1224.91,1337.63 1227.61,1335.30
             1230.28,1333.01 1234.45,1323.59 1236.25,1320.00
             1242.29,1307.88 1250.67,1289.79 1254.42,1277.00
             1259.43,1259.96 1263.97,1239.79 1264.00,1222.00
             1264.00,1222.00 1264.00,1201.00 1264.00,1201.00
             1263.99,1194.33 1263.05,1187.60 1262.13,1181.00
             1256.85,1142.96 1241.82,1106.45 1218.35,1076.00
             1205.09,1058.80 1188.82,1042.92 1170.00,1031.86
             1165.89,1029.44 1155.34,1023.18 1151.00,1022.71
             1147.91,1022.37 1143.96,1024.01 1141.00,1025.00
             1135.42,1026.86 1127.82,1028.87 1123.00,1032.00
             1133.19,1036.74 1138.29,1038.08 1148.00,1045.16
             1184.61,1071.86 1208.06,1115.73 1218.87,1159.00
             1222.32,1172.78 1225.98,1192.92 1226.00,1207.00
             1226.00,1207.00 1226.00,1232.00 1226.00,1232.00
             1225.96,1255.40 1216.46,1295.12 1207.80,1317.00
             1207.80,1317.00 1201.22,1332.00 1201.22,1332.00
             1198.67,1336.90 1195.94,1340.71 1194.00,1346.00 Z
           M 424.00,1025.00
           C 424.00,1025.00 432.00,1025.00 432.00,1025.00
             432.00,1025.00 432.00,1050.00 432.00,1050.00
             434.20,1048.16 436.31,1046.35 439.00,1045.23
             447.15,1041.82 459.36,1043.87 462.74,1053.00
             464.40,1057.49 464.00,1064.15 464.00,1069.00
             464.00,1069.00 464.00,1095.00 464.00,1095.00
             464.00,1095.00 456.00,1095.00 456.00,1095.00
             456.00,1095.00 456.00,1064.00 456.00,1064.00
             455.77,1046.91 440.01,1047.24 434.01,1057.02
             431.95,1060.37 432.02,1063.24 432.00,1067.00
             432.00,1067.00 432.00,1095.00 432.00,1095.00
             432.00,1095.00 424.00,1095.00 424.00,1095.00
             424.00,1095.00 424.00,1025.00 424.00,1025.00 Z
           M 654.00,1025.00
           C 654.00,1025.00 661.00,1025.00 661.00,1025.00
             661.00,1025.00 661.00,1095.00 661.00,1095.00
             661.00,1095.00 654.00,1095.00 654.00,1095.00
             654.00,1095.00 654.00,1089.00 654.00,1089.00
             650.97,1091.70 648.93,1093.53 645.00,1094.89
             635.86,1098.06 625.45,1092.38 621.40,1084.00
             619.51,1080.09 618.22,1072.32 618.51,1068.00
             619.50,1053.45 625.71,1042.49 642.00,1044.10
             647.16,1044.61 649.86,1047.26 654.00,1050.00
             654.00,1050.00 654.00,1025.00 654.00,1025.00 Z
           M 878.00,1025.00
           C 878.00,1025.00 886.00,1025.00 886.00,1025.00
             886.00,1025.00 886.00,1095.00 886.00,1095.00
             886.00,1095.00 879.00,1095.00 879.00,1095.00
             879.00,1095.00 879.00,1089.00 879.00,1089.00
             874.76,1091.93 872.30,1094.56 867.00,1095.53
             838.44,1100.73 833.83,1046.31 861.00,1044.24
             863.03,1043.93 867.05,1043.94 869.00,1044.24
             872.88,1045.28 875.14,1047.44 878.00,1050.00
             878.00,1050.00 878.00,1025.00 878.00,1025.00 Z
           M 1481.00,1062.00
           C 1477.81,1053.86 1471.66,1050.71 1464.00,1047.43
             1451.86,1042.23 1438.92,1038.78 1426.00,1036.20
             1389.75,1028.95 1365.36,1028.94 1329.00,1029.00
             1329.00,1029.00 1317.00,1029.91 1317.00,1029.91
             1317.00,1029.91 1279.00,1033.28 1279.00,1033.28
             1279.00,1033.28 1258.00,1036.00 1258.00,1036.00
             1259.75,1040.11 1266.96,1049.92 1271.17,1051.31
             1273.52,1052.09 1282.12,1050.23 1285.00,1049.75
             1285.00,1049.75 1315.00,1045.58 1315.00,1045.58
             1327.14,1043.92 1340.75,1043.02 1353.00,1043.00
             1353.00,1043.00 1368.00,1042.01 1368.00,1042.01
             1368.00,1042.01 1383.00,1043.00 1383.00,1043.00
             1401.25,1043.03 1423.16,1045.48 1441.00,1049.42
             1441.00,1049.42 1467.00,1056.69 1467.00,1056.69
             1467.00,1056.69 1481.00,1062.00 1481.00,1062.00 Z
           M 1153.00,1355.00
           C 1158.03,1354.77 1175.10,1352.26 1178.67,1349.42
             1181.77,1346.95 1185.81,1337.88 1187.75,1334.00
             1194.80,1319.90 1200.36,1305.14 1204.71,1290.00
             1209.89,1271.96 1214.97,1249.77 1215.00,1231.00
             1215.00,1231.00 1215.00,1208.00 1215.00,1208.00
             1214.94,1170.05 1198.55,1120.75 1176.57,1090.00
             1163.92,1072.30 1147.56,1055.70 1128.00,1045.76
             1122.92,1043.18 1113.60,1038.10 1108.00,1038.20
             1103.26,1038.28 1089.53,1045.42 1085.00,1048.00
             1085.00,1048.00 1105.00,1060.88 1105.00,1060.88
             1119.10,1071.27 1130.00,1081.99 1140.53,1096.00
             1165.85,1129.70 1182.51,1177.73 1183.00,1220.00
             1183.00,1220.00 1183.97,1232.00 1183.97,1232.00
             1183.97,1232.00 1183.00,1249.00 1183.00,1249.00
             1182.89,1258.26 1179.65,1277.63 1177.58,1287.00
             1173.58,1305.10 1167.96,1322.01 1160.58,1339.00
             1160.58,1339.00 1153.00,1355.00 1153.00,1355.00 Z
           M 489.00,1059.00
           C 490.49,1045.01 501.58,1043.87 513.00,1044.00
             518.66,1044.07 523.84,1044.94 527.27,1050.04
             529.52,1053.41 529.95,1059.03 530.00,1063.00
             530.15,1076.09 529.03,1081.81 532.00,1095.00
             525.95,1094.98 523.81,1095.75 523.00,1089.00
             523.00,1089.00 512.00,1094.40 512.00,1094.40
             502.22,1097.64 488.18,1095.46 487.11,1083.00
             485.86,1068.49 499.34,1067.23 510.00,1065.58
             512.81,1065.14 518.48,1064.57 520.39,1062.44
             522.82,1059.72 520.97,1055.57 518.72,1053.39
             515.16,1049.92 508.54,1049.15 504.00,1050.89
             495.62,1054.11 500.52,1058.85 489.00,1059.00 Z
           M 562.00,1051.00
           C 567.88,1046.93 569.42,1044.23 577.00,1044.02
             581.80,1043.88 587.00,1044.04 590.79,1047.42
             595.70,1051.79 595.99,1058.92 596.00,1065.00
             596.00,1065.00 596.00,1095.00 596.00,1095.00
             596.00,1095.00 588.00,1095.00 588.00,1095.00
             588.00,1095.00 588.00,1065.00 588.00,1065.00
             587.78,1047.55 572.13,1046.87 565.85,1057.02
             561.72,1063.70 563.00,1086.31 563.00,1095.00
             563.00,1095.00 556.00,1095.00 556.00,1095.00
             556.00,1095.00 556.00,1045.00 556.00,1045.00
             556.00,1045.00 562.00,1045.00 562.00,1045.00
             562.00,1045.00 562.00,1051.00 562.00,1051.00 Z
           M 694.00,1051.00
           C 694.00,1051.00 702.00,1045.45 702.00,1045.45
             710.08,1041.46 719.70,1044.19 724.00,1052.00
             726.45,1049.62 728.91,1047.00 732.00,1045.45
             734.69,1044.11 737.07,1044.01 740.00,1044.01
             747.59,1044.01 752.00,1046.35 754.21,1054.00
             755.34,1057.89 755.00,1064.74 755.00,1069.00
             755.00,1069.00 755.00,1095.00 755.00,1095.00
             755.00,1095.00 747.00,1095.00 747.00,1095.00
             747.00,1095.00 747.00,1063.00 747.00,1063.00
             746.93,1058.21 746.34,1054.57 741.96,1051.74
             736.33,1048.11 729.12,1052.60 726.65,1058.00
             725.10,1061.39 725.02,1065.35 725.00,1069.00
             725.00,1069.00 725.00,1095.00 725.00,1095.00
             725.00,1095.00 717.00,1095.00 717.00,1095.00
             717.00,1095.00 717.00,1063.00 717.00,1063.00
             716.94,1059.11 716.75,1055.44 713.61,1052.65
             707.91,1047.58 699.70,1051.88 696.99,1058.01
             693.93,1064.96 695.00,1086.42 695.00,1095.00
             695.00,1095.00 687.00,1095.00 687.00,1095.00
             687.00,1095.00 687.00,1045.00 687.00,1045.00
             687.00,1045.00 694.00,1045.00 694.00,1045.00
             694.00,1045.00 694.00,1051.00 694.00,1051.00 Z
           M 779.00,1058.00
           C 782.49,1044.08 791.94,1043.84 804.00,1044.00
             809.29,1044.07 814.87,1045.27 817.91,1050.10
             820.14,1053.64 819.99,1057.98 820.00,1062.00
             820.02,1073.82 818.75,1083.76 823.00,1095.00
             816.77,1094.98 814.78,1095.61 813.00,1089.00
             805.08,1093.42 798.60,1097.60 789.00,1095.32
             777.08,1092.48 773.70,1080.21 781.22,1072.11
             786.80,1066.10 794.62,1066.71 802.00,1065.39
             805.13,1064.83 810.09,1064.25 811.38,1060.86
             813.68,1054.80 805.94,1050.46 801.00,1050.10
             793.75,1049.56 789.37,1052.06 787.00,1059.00
             787.00,1059.00 779.00,1058.00 779.00,1058.00 Z
           M 954.00,1080.02
           C 951.01,1095.66 931.19,1100.02 919.01,1092.03
             911.33,1086.99 908.52,1076.77 909.09,1068.00
             909.56,1060.78 911.69,1054.18 917.04,1049.11
             924.32,1042.21 939.20,1041.90 946.82,1048.53
             953.06,1053.96 954.83,1063.12 955.00,1071.00
             955.00,1071.00 925.00,1071.00 925.00,1071.00
             916.52,1071.16 916.22,1075.67 920.65,1082.00
             924.05,1086.85 928.00,1089.41 934.00,1088.89
             942.53,1088.16 943.70,1081.80 946.61,1080.02
             948.51,1078.87 951.84,1079.72 954.00,1080.02 Z
           M 637.00,1050.39
           C 634.59,1051.18 633.29,1051.51 631.39,1053.39
             623.81,1060.92 623.65,1087.39 639.00,1088.89
             652.66,1090.22 654.12,1078.29 654.00,1068.00
             653.87,1057.09 649.05,1048.87 637.00,1050.39 Z
           M 862.00,1050.34
           C 858.99,1051.22 857.59,1051.66 855.39,1054.13
             848.04,1062.41 847.99,1092.38 868.00,1088.77
             875.79,1087.37 878.68,1078.97 878.96,1072.00
             879.43,1060.52 875.72,1048.86 862.00,1050.34 Z
           M 946.00,1065.00
           C 945.91,1061.59 945.90,1059.06 943.99,1056.04
             937.78,1046.20 918.97,1047.58 918.00,1065.00
             918.00,1065.00 946.00,1065.00 946.00,1065.00 Z
           M 1486.00,1085.00
           C 1485.87,1075.32 1481.36,1074.00 1473.00,1070.43
             1462.52,1065.94 1449.20,1062.07 1438.00,1059.80
             1420.40,1056.23 1401.95,1054.03 1384.00,1054.00
             1384.00,1054.00 1369.00,1053.00 1369.00,1053.00
             1369.00,1053.00 1357.00,1053.96 1357.00,1053.96
             1357.00,1053.96 1346.00,1053.96 1346.00,1053.96
             1333.21,1054.02 1291.32,1058.89 1279.00,1062.00
             1279.00,1062.00 1288.00,1077.00 1288.00,1077.00
             1288.00,1077.00 1312.00,1071.00 1312.00,1071.00
             1332.09,1066.84 1345.48,1065.20 1366.00,1065.00
             1394.32,1064.71 1416.20,1066.28 1444.00,1072.65
             1444.00,1072.65 1469.00,1079.34 1469.00,1079.34
             1469.00,1079.34 1486.00,1085.00 1486.00,1085.00 Z
           M 1099.00,1070.00
           C 1093.90,1066.60 1077.58,1055.99 1072.00,1055.91
             1068.42,1055.87 1063.13,1059.36 1060.00,1061.15
             1060.00,1061.15 1032.00,1079.15 1032.00,1079.15
             994.80,1106.17 960.89,1143.27 947.02,1188.00
             941.22,1206.74 940.78,1218.76 941.00,1238.00
             941.06,1242.64 941.23,1249.24 944.00,1253.00
             944.38,1235.80 955.02,1208.47 962.75,1193.00
             983.43,1151.65 1019.21,1118.28 1058.00,1093.95
             1070.41,1086.17 1085.46,1077.42 1099.00,1072.00
             1099.00,1072.00 1099.00,1070.00 1099.00,1070.00 Z
           M 522.00,1069.00
           C 522.00,1069.00 508.00,1072.25 508.00,1072.25
             506.12,1072.58 502.69,1073.17 501.02,1073.88
             494.34,1076.67 493.27,1084.24 499.11,1088.15
             506.20,1092.89 517.03,1088.10 520.43,1081.00
             522.24,1077.22 522.00,1073.07 522.00,1069.00 Z
           M 812.00,1069.00
           C 812.00,1069.00 790.11,1074.45 790.11,1074.45
             785.09,1077.34 784.70,1084.77 789.23,1087.91
             795.74,1092.43 807.02,1088.83 810.55,1081.98
             812.45,1078.29 812.00,1073.10 812.00,1069.00 Z
           M 1480.00,1095.00
           C 1469.16,1089.45 1446.40,1084.09 1434.00,1081.60
             1417.60,1078.30 1400.73,1076.03 1384.00,1076.00
             1384.00,1076.00 1372.00,1075.18 1372.00,1075.18
             1372.00,1075.18 1356.00,1076.00 1356.00,1076.00
             1341.50,1076.02 1308.12,1081.43 1295.00,1087.00
             1295.00,1087.00 1305.00,1108.00 1305.00,1108.00
             1305.00,1108.00 1304.00,1102.00 1304.00,1102.00
             1304.00,1102.00 1342.00,1091.42 1342.00,1091.42
             1370.84,1085.05 1400.75,1083.09 1430.00,1087.43
             1442.46,1089.27 1452.08,1091.69 1464.00,1095.67
             1470.61,1097.87 1474.63,1100.89 1480.00,1095.00 Z
           M 1125.00,1095.00
           C 1122.43,1090.60 1114.97,1081.20 1110.00,1079.92
             1106.03,1078.90 1097.71,1083.90 1094.00,1085.75
             1080.50,1092.50 1067.56,1099.96 1055.00,1108.33
             1005.95,1141.03 968.01,1185.10 956.00,1244.00
             954.15,1253.08 953.54,1261.82 952.72,1271.00
             952.57,1276.00 951.28,1279.74 952.72,1285.00
             953.34,1288.42 955.52,1291.94 957.28,1295.00
             959.61,1299.03 961.93,1303.58 966.00,1306.00
             966.00,1283.92 967.30,1268.46 973.43,1247.00
             988.94,1192.61 1029.57,1151.59 1076.00,1121.69
             1076.00,1121.69 1108.00,1103.26 1108.00,1103.26
             1108.00,1103.26 1125.00,1095.00 1125.00,1095.00 Z
           M 1147.00,1127.00
           C 1144.40,1121.01 1141.03,1115.38 1137.33,1110.00
             1136.01,1108.08 1134.34,1105.38 1131.91,1104.81
             1128.66,1104.05 1118.35,1110.08 1115.00,1111.75
             1100.41,1119.05 1084.31,1128.02 1071.00,1137.42
             1028.89,1167.17 997.73,1201.71 983.29,1252.00
             980.38,1262.12 977.13,1279.58 977.00,1290.00
             977.00,1290.00 977.00,1311.00 977.00,1311.00
             977.00,1313.33 976.86,1316.77 977.74,1318.91
             979.84,1324.03 990.81,1331.28 996.00,1333.00
             996.00,1278.31 1019.09,1223.33 1058.18,1185.00
             1083.97,1159.71 1113.86,1141.06 1147.00,1127.00 Z
           M 1152.00,1137.00
           C 1140.43,1140.12 1121.53,1150.67 1111.00,1157.00
             1066.66,1183.66 1032.80,1222.52 1016.67,1272.00
             1010.76,1290.13 1006.96,1312.94 1007.00,1332.00
             1007.02,1341.92 1007.41,1340.76 1023.00,1347.00
             1023.00,1336.00 1024.44,1324.85 1026.25,1314.00
             1036.64,1251.61 1071.87,1203.22 1126.00,1170.80
             1137.00,1164.21 1147.07,1158.77 1159.00,1154.00
             1159.00,1154.00 1152.00,1137.00 1152.00,1137.00 Z
           M 1163.00,1164.00
           C 1151.65,1167.96 1133.14,1178.24 1123.00,1185.00
             1111.80,1192.46 1098.41,1202.45 1089.04,1212.01
             1052.16,1249.64 1034.00,1298.72 1034.00,1351.00
             1034.00,1351.00 1062.00,1356.72 1062.00,1356.72
             1081.81,1359.39 1097.25,1359.03 1117.00,1359.00
             1121.22,1358.99 1135.78,1358.26 1138.79,1356.15
             1141.77,1354.05 1144.55,1347.40 1146.25,1344.00
             1151.34,1333.79 1155.72,1322.82 1159.33,1312.00
             1165.43,1293.73 1171.97,1265.14 1172.00,1246.00
             1172.00,1246.00 1172.00,1217.00 1172.00,1217.00
             1171.88,1206.81 1168.83,1189.18 1166.58,1179.00
             1166.58,1179.00 1163.00,1164.00 1163.00,1164.00 Z
           M 1797.00,1182.00
           C 1794.54,1189.21 1782.32,1202.40 1775.00,1204.78
             1772.05,1205.73 1764.94,1207.09 1763.15,1203.57
             1761.56,1200.43 1766.71,1195.22 1768.59,1193.00
             1775.99,1184.23 1785.24,1177.81 1797.00,1182.00 Z
           M 1530.00,1308.00
           C 1530.00,1308.00 1529.00,1308.00 1529.00,1308.00
             1529.00,1308.00 1530.00,1309.00 1530.00,1309.00
             1530.00,1309.00 1530.00,1308.00 1530.00,1308.00 Z
           M 1245.00,1329.00
           C 1245.00,1329.00 1244.00,1329.00 1244.00,1329.00
             1244.00,1329.00 1245.00,1330.00 1245.00,1330.00
             1245.00,1330.00 1245.00,1329.00 1245.00,1329.00 Z" />
</svg>
